<?xml version="1.0" standalone="no"?>
<!DOCTYPE svg PUBLIC "-//W3C//DTD SVG 20010904//EN"
 "http://www.w3.org/TR/2001/REC-SVG-20010904/DTD/svg10.dtd">
<svg version="1.0" xmlns="http://www.w3.org/2000/svg"
 width="400.000000pt" height="400.000000pt" viewBox="0 0 400.000000 400.000000"
 preserveAspectRatio="xMidYMid meet">
<metadata>
Created by potrace 1.11, written by Peter Selinger 2001-2013
</metadata>
<g transform="translate(0.000000,400.000000) scale(0.100000,-0.100000)"
fill="#000000" stroke="none">
<path d="M1882 3736 c-243 -47 -457 -165 -622 -344 -168 -182 -286 -415 -342
-675 -18 -85 -22 -133 -21 -283 l0 -182 -31 19 c-45 27 -98 25 -135 -7 -66
-55 -124 -223 -125 -359 0 -69 5 -92 35 -166 51 -125 116 -234 180 -302 53
-56 59 -59 95 -55 22 3 47 8 57 12 13 6 17 3 17 -13 0 -50 34 -183 71 -278 43
-109 133 -268 213 -373 81 -107 243 -261 344 -328 386 -253 742 -191 1112 195
212 220 388 538 416 751 6 44 10 52 23 46 9 -4 33 -9 55 -12 36 -4 42 -1 95
55 64 68 129 177 180 302 30 74 35 97 35 166 -1 136 -59 304 -125 359 -37 31
-90 34 -134 8 l-30 -19 -1 186 c0 153 -4 204 -22 288 -61 282 -191 523 -381
706 -147 142 -310 235 -496 283 -124 32 -347 42 -463 20z"/>
</g>
</svg>
